<svg xmlns="http://www.w3.org/2000/svg" viewBox="0 13 1024 682.7"><path d="M1003.9 354.2c2.5-7.9 14.3-3.8 14.3-3.8-13.4-17.2-44.7-18.5-44.7-18.5-5-5-22-7.6-27.2-8.2l2.4-8.5c.2-.8-.3-1.7-1.1-1.9-.8-.2-1.7.3-1.9 1.1l-18.2 66.2L867 277.9h.5v-9.2l-7.7-3.1-.5-1.4-16.7-148.4c1.1-1.5 1.3-2.3 1.3-2.3V106l-4.1-1L817 57.9l-.1-8.1c-.1-3.1-1.6-5.5-4.7-5.4h-.1c-3.1.1-4.5 2.7-4.4 5.8l.1 4-26.1 37-1.2.7-1.3-.3c-16.2 7.7-29.2 15.8-39.6 24l-60.1 35-82-73.5c8.4-4.8 14.2-7.5 14.2-7.5s-10.4-2.3-23.2-5.1V51c6.6-.9 19.6 2.6 19.6 2.6 16.7 9 41.6 0 41.6 0 11.1-5.1 37.3 5.6 37.3 5.6-17.1-23.1-39-18.3-39-18.3 3.4-8.1 36.4-3.5 36.4-3.5-22.3-13.7-42-9-42-9-23.1 3.4-27.4 0-27.4 0-12.9-8.1-26.3-5.3-26.3-5.3l-3.8 1.2c-3.1 0-3.6 2-3.6 5.3l-.3 33.6c-19.1-4.2-40.4-9-41.6-9.4L490 133c-5 9.8-8 18.5-9.5 26.5l-113.8-51.3-1.6-48.9c-.1-3.1-1.6-5.2-4.7-5.2h-.1c-3.1 0-4.5 2.5-4.4 5.6l1.4 50.9v-.1c-104.5 67.3-198.1 171.9-254 241.6L33.8 418c-.1.1-.2.3-.3.4L8.2 405.5c-1.3-.7-2.7-.6-3.1.2-.4.8.4 1.9 1.7 2.6l123.9 62.5c-1.1-.1-2.3.5-2.9 1.7-.7 1.5-.3 3.2 1 3.9l82.8 41.7c-7.5 7.8-14.8 14.3-18.8 17.8-3.4-1-8.1-1.6-14.3-1 0 0-8.8-24.4-31.3-16.2 0 0-23.3 11.1-4.4 37.3 0 0 8 10.2 28.4 7.3 0 0 29.1 13.8 48 9.5 0 0 20.4 89.5 139.8 123 0 0 126.4-19.9 192.4-25.1 0 0 201.3 7.3 299.7-55.7 0 0 45.1-26.9 53.1-25.5l7.3-17.9 46.4-15.1v-28.9s4.2-2.9.5-8.8l1.6-12.4 7.1-13.1v-6.8l4.1-3.9v-6.4s12.6-13.6-3.5-14.6l-6.8-5.4-.4-5.9-6.4-5.4 1.6-7.6s3.3-9.2-.5-9.7c0 0 8.1-5.9.5-10.2l.5-12.9-4.2-3.5-.5-9.2-21.2-7.2-.6-1 9-32.6 29.7 5.8c18.8 5.6 36.1 8.4 36.1 8.4 27.2 5.2 18 2.9 18 2.9-6.2-7.4-18.6-13.9-18.6-13.9zM840.5 119.4L856.4 264l-33-12.5-3.3-102.4c8.2-12.7 15.8-23.4 20.4-29.7zM640 451.3c-.7.1-1.3.8-1.3 1.5v7.1c.4 8.9-12.1 9.7-12.6 9.7-1.7 0-3.2.1-4.8.2l-2.1-9.5c3.7-.4 6-.4 6.1-.4.2 0 .4 0 .6-.1 8.3-2.8 10-9.8 9.7-14.3 1.6-.7 3.9-1.4 6.8-2.2l1.5 7.2c-2 .4-3.4.7-3.9.8zM379.3 504l-.2-6c1.2-.1 2.6-.2 4.3-.3l.5 6c-2.4.1-4 .3-4.6.3zm7.2-6.5c2.7-.2 5.9-.4 9.4-.6l.9 5.9c-3.8.3-7.1.5-9.8.7l-.5-6zm-10.4-149.4l39.5 143.6c-6.2.4-12 .7-17.1 1l-22.4-144.6zm24.1 148.5c5.1-.3 10.4-.6 15.9-.9l1.3 5.6c-6.2.4-12.1.8-17.2 1.1v-5.8zm19.1-1c2.7-.1 5.6-.3 7.6-.5v5.6c-2.1.1-4.2.3-6.4.4l-1.2-5.5zm37.4 3.2c-9.2.6-17.5 1.2-26.7 1.7v-5.6c9.2-.5 18.5-1 26.7-1.5v5.4zm26.7-1.7c-7.2.5-15.4 1-23.6 1.5v-5.3c8.2-.4 16.4-.9 23.6-1.3v5.1zm49.3-2.8c-3.1.2-7.2.4-12.3.7v-1.8c3.1-1.3 4.4-2.6 6.5-3.8 2-.2 4.8-.4 5.9-.6v5.5zM574 332.4l.6-2.1 4.1 23.1-.1 18.1-4.6-39.1zm4.4 63.8l-.4 50c-15.2-38.5-13.7-75.1-6.2-105.7l6.6 55.7zm-1.8-72.2c.8-2.3 1.6-4.6 2.4-6.8l-.2 19.5-2.2-12.7zm-23.4-96.8l26.7-16.1-.2 30.1-26.5-14zm25.6-23.5l-24.3-10.9c-.9-.7-1.8-1.3-2.6-2l28.8-86.9L580 204l-1.2-.3zm-1 265.8v.2c-4 3-7.6 6.6-10.3 11.1-3.2.4-14.2 1.9-30.3 3.5 18.5-9.4 32.1-13.3 40.6-14.8zm-28.7 17.6v6.4c-3.1.2-8.2.4-13.4.6v-5.7c5.2-.4 10.4-.9 13.4-1.3zm3.1-.4c7.2-.7 11.3-1.3 13.4-1.6v7.9c-3.1 0-7.2.1-13.4.4v-6.7zm16.5-2.1c1-.2 1.2-.5 1.4-.8 1.9-3.3 4.6-6.2 7.5-8.7l-.5 9.6c-4 3-6.4 5.8-8.4 7.4v-7.5zm62.7-39.9c.1.3 1.5 8.2-6.5 11.1-.9 0-3.3.1-6.7.4l-29.6-133.9v-27.2c4.1-8.2 8.2-15.3 11.8-21l4.2-3.7.8-.3 36.3 169.2c-4.3 1.1-7.4 2.2-9.2 3.1-.8.5-1.2 1.4-1.1 2.3zm-42.7-53.4v-54.7l26.5 119.9c-4.1.5-9.1 1.3-14.3 2.7l-12.2-67.9zm9.2 68.8c-2.8.8-5.6 1.9-8.4 3.1l-.7-6.2v-48.2l9.1 51.3zm2.6-208.9h-3.7l-8.1-4.8v-39.1l10-6 4 50.8-2.2-.9zm-10.6 216.3c2.9-1.3 5.8-2.3 8.7-3.2l1.6 9.1c-3.4 1-6.4 2.2-9.2 3.4l-1.1-9.3zm11.7-4.1c5.3-1.4 10.4-2.3 14.5-2.8l2.1 9.4c-5.5.5-10.5 1.4-14.9 2.6l-1.7-9.2zm43.4-20.9c1.3-.3 2.8-.7 3.8-1v8c0 .2-1.6.3-2.4.5l-1.4-7.5zm23.3 3.4c-6.2 1.1-11.3 2.2-16.4 3v-8.1c5.1-1 11.3-2.1 16.4-3.2v8.3zm20.5-3.6c-6.2 1.1-11.3 2.1-17.5 3.1v-8.3c6.2-1 12.3-2 17.5-3v8.2zm112.9-24.2c6.9-.9 12.5-1.6 16.1-2.1l.2 6.5c-3.3.2-7.2.6-11.8 1.2-1.6-1.8-3.1-3.7-4.5-5.6zm34.8-314l-17.9-4-1.1-34.8 19 38.8zm-18.8 307.8c-4 .5-10.5 1.3-18.6 2.4-20.8-32.8-4.5-69.1 16-96.4l2.6 94zm-6.8-247.6l2.3 83.3-26.2-9.9c-4.6-17.9 8.8-47.5 23.9-73.4zM808 59.2l1.1 38.8-24.6-5.5L808 59.2zM727.8 126c-16.1 15.9-23.5 31.5-26.6 43.9L682 152.7l45.8-26.7zm-27.4 47.3c-2.8 13.4-.7 22.3-.7 22.3 2.9 45.1 53.1 65.5 53.1 65.5-87.6 43.8-74.4 121.9-56.6 167.9-20.9 3.3-39.5 6.7-51.6 9.7L607.8 269l3-1.4v-9.5l-5.4-4.2-4-54.4 77.8-45.2 21.2 19zm0 267c-2.7.5-5.5.9-8.5 1.4v-8.1c2.1-.3 3.5-.5 5.1-.8 1 2.7 2.4 5.2 3.4 7.5zM594.8 78.7l82 73.5-75.5 44-9.1-115.9c.9-.6 1.7-1.1 2.6-1.6zm-5.6 3.3l9.1 115.8-9.7 5.7V82.4c.2-.1.4-.3.6-.4zm-8.3 5.4l-.1 6.4-31.4 94.7c-6.4-6-8.4-11.2-8.4-11.2-23.6-36.9 11.3-70.4 39.9-89.9zM364.2 361.2l2.6 93.8c-2.5-.8-5.4-1.8-8.5-2.9l5.9-90.9zm-1.5-53.8l-6.8-.3 6.3-16.8.5 17.1zM359.4 186l1.4 70.3-7.8 7.1v10l-16.1 4.3c-12.6-9.4-24.9-26.1-8.4-50.2-.1.1 14.9-19.3 30.9-41.5zm-21.6-52.1l11.2-10.6c-10.9 17.7-29.8 51.3-40.6 86.2 2.4-30.9 16.9-57.7 29.4-75.6zm-37.6 118.3c-.9 21.5 4.2 41 19.8 54.8-5.9 11.7-14.9 25-28.2 34.1 0 0-30.5 16.7-45.7 47.4 2.5-40.2 37.2-106.2 54.1-136.3zM231.7 503c2.8-3.6 5.3-6.8 7.4-9.5l15.1-.2c-2.2 3.5-4.8 7.1-7.7 10.5l-14.8-.8zm8 8.4c-3 3.1-6.1 6.1-9.2 9-3.1-1.7-6.2-3.4-9-4.9 1.6-1.9 3.2-3.8 4.7-5.6l13.5 1.5zm-29.7-4.1L36.2 419.7 89.8 369c-26 33.3-40.9 55.2-40.9 55.2 55.4-24.4 158.3-18.1 190.4-15.5-3.5 17.8-1.1 38.9 12.8 62.9l-42.2 1.2s-2.2 0-3.2 5.4c0 0-2.7 12.9 4.9 15.6l20.2-.2c-3.8 6.3-9.3 13-15 19.2-3-1.7-5-2.8-4.9-3 .2-.7-.6-1.8-1.9-2.5zm6.9 13.4l8.4 4.2c-2.3 2-4.6 3.9-6.8 5.7l-6.9-4c1.7-1.9 3.5-3.9 5.3-5.9zm-15.8 19.9s-.6-.9-2.1-1.9c1.8-1.4 3.6-3 5.6-4.9l5.5 3.5c-3 2.3-5.5 4-7.2 5.2l-1.8-1.9zm11 12.3l-4.9-5.5c3.2-2 6.2-4.1 9.1-6.2l8.4 5.3c-4.4 3-8.7 5.2-12.6 6.4zm21.7-13.2l-8.8-5.1c2.5-2 4.9-4.1 7.1-6.1l9.1 4.6c-2.4 2.2-4.9 4.5-7.4 6.6zm12-11.1s-3.8-2-8.8-4.7c4.1-4.1 7.7-8 10.7-11.6l12 1.3c-4.2 4.9-8.9 10-13.9 15zm21.2-23.5l-13.1-.8c3-4.3 5.2-8.1 6.7-11l15.8-.2c-.1 0-3.7 4.9-9.4 12zM292.8 374s6.1-18.9 25.1-28.1c0 0 28.4-12.9 30.2-16.1l12.8 13.4-15.3 103.7c-27.2-12.2-60.7-35.3-52.8-72.9zm60.7 104.3c-.6-.1-1.2-.1-1.8-.1l-2.1-4.6c1.5-.5 2.9-1 4.4-1.6l-.5 6.3zm-4.9-30.1l12.2-82.8-5.6 85.5c-2.1-.8-4.3-1.7-6.6-2.7zm11.7 35.9s-.6-3.1-3.8-4.8l.6-8.5c3.6-1.4 7-2.9 10-4.5l.7 25.9-7.5-8.1zm11.3-207l7.1-3.4v-.3l5.1-.8v-7.1l-5.1 1.3v-10.4l-7.9-4.6-2.3-79.1c13.1-18.7 25.6-37.2 29.6-46.4L366.9 114l-.1-2.6 113.2 51c-5.2 38.4 27.6 55.5 49.8 62.6-101.3 120-67.3 221-44.9 262.9-20.5 1.1-45.3 2.4-66.2 3.6l-41.1-149.8 12.7-11.9 6.9-2.2v-11.8l-5-7.1-19.6-.9-1-30.7zM489 496.8c-.8 0-1.4.1-2.5.1v-4.3c1 1.5 1.7 2.9 2.5 4.2zm-93.7-3.9c-3.4.2-6.4.4-9.1.6L376.1 368l19.2 124.9zm-12.2.8c-1.5.1-2.9.2-4.1.3l-2.7-84.9 6.8 84.6zm-1.7 13.2c.7-.1 1.7-.1 2.8-.2l.3 3.5-3.1-3.3zm15.8 5l-9.9.7-.2-6.1c2.7-.2 5.8-.4 9.7-.7l.5 5.6v.5zm3.6-.2l-.6-.5v-5.6c6.2-.4 11.8-.8 18.3-1.2l1.7 6-19.4 1.3zm22.5-1.5l-1.9-6c1.9-.1 4.5-.3 5.5-.4v6.1l-3.6.3zm6.7-.4v-6.1c9.2-.6 17.5-1.1 26.7-1.7v6.1l-26.7 1.7zm29.8-2v-6.1c8.2-.5 16.4-1 23.6-1.5v6l-23.6 1.6zm26.7-1.7v-6c2.1-.1 3.4-.2 4.9-.3 1.5 2.4 2.6 4.3 3.6 5.7l-8.5.6zm25.9 7.7l-2.6-9.2-6.9.5c3.3-2.3 6.1-4.5 9.2-6.5 1.9-.1 4.1-.2 5.2-.3v15l-4.9.5zm8-.9V498c5.1-.2 9.2-.5 12.3-.7v14.3l-12.3 1.3zm15.4-1.5v-14.2c5.1-.2 10.3-.5 13.4-.6v13.5l-13.4 1.3zm16.4-1.6v-13.3c6.2-.2 10.3-.4 13.4-.4v12.3l-13.4 1.4zm16.5-1.6v-12c1 0 1.5-.2 1.8-.6.1-.1 2.5-3 7-6.7l-.5 18.6-8.3.7zm20-1.9v-22.8l2.7 22.6-2.7.2zm7.3-.7l-1.6.2-3-25.5c2.8-1.3 5.9-2.6 9.4-3.6l3.3 18.7c-3.9 3.1-7.1 6.6-8.1 10.2zm10.9-12.4l-3.1-17.5c4.5-1.2 9.5-2.1 15.1-2.6l2.6 11.6c-4.2 2-9.7 4.9-14.6 8.5zm20.4-11.3s-1.2.5-3 1.3l-2.3-10.5c1.4-.1 2.8-.1 4.2-.2 3.3-.2 8.2-1.3 11.6-4.1-1.8 4.4-5 9.5-10.5 13.5zm14.5-22.3v-5.5c.7-.1 1.7-.3 2.9-.5l1.2 5.6-4.1.4zm6.7-.8L647 453c.6-.1 1.8-.2 1.8-.4v6.1l-.3.1zm3.3-.4v-6.3c5.1-.8 10.3-1.8 16.4-3v7.4l-16.4 1.9zm19.6-2.3v-7.6c6.2-1 11.3-2 17.5-3.1v8.7l-17.5 2zm20.5-2.3v-8.9c3.1-.5 6.7-1.1 9.9-1.6 1.5 3.3 2.7 6.3 4.1 8.9l-14 1.6zm116.9-27.3c3.4-.4 6.4-.7 8.9-.9l-5.6 4.1c-1.2-1-2.2-2.1-3.3-3.2zm29.4-14.2l-9.4 6.1-2.8-88.7 14.9 61.7c-1.3.3-2.5.6-3.7.9l1 20zm5.6-21.5l-18.4-76.2v-.8l27 75.5c-3 .5-5.9 1-8.6 1.5zm11.7-2L825.6 305c.6-.7 1.2-1.3 1.8-2l40.9 84.2c-4.3.5-8.6 1-12.8 1.6zm16-2l-41.9-86.3c0-.1.1-.1.1-.2l54.2 85.3c-3.7.4-8 .8-12.4 1.2zm51.9-4l-2.7 14.2h-3.9l-.9 4.6-16.6.8-1.3-17.6s-4.3.2-10.7.7l-55.5-87.3c13.2-14 24.3-22.2 24.3-22.2l7.2 1.9 62.4 106-2.3-1.1z"/></svg>