<?xml version="1.0" encoding="utf-8"?>
<!-- Generator: Adobe Illustrator 18.0.0, SVG Export Plug-In . SVG Version: 6.00 Build 0)  -->
<!DOCTYPE svg PUBLIC "-//W3C//DTD SVG 1.1//EN" "http://www.w3.org/Graphics/SVG/1.1/DTD/svg11.dtd">
<svg version="1.1" id="Слой_1" xmlns="http://www.w3.org/2000/svg" xmlns:xlink="http://www.w3.org/1999/xlink" x="0px" y="0px"
	 viewBox="0 13 1024 682.7" enable-background="new 0 13 1024 682.7" xml:space="preserve">
<path fill="#000000"      d="
	M1003.9,354.2c2.5-7.9,14.3-3.8,14.3-3.8c-13.4-17.2-44.7-18.5-44.7-18.5c-5-5-22-7.6-27.2-8.2l2.4-8.5c0.2-0.8-0.3-1.7-1.1-1.9
	c-0.8-0.2-1.7,0.3-1.9,1.1l-18.2,66.2L867,277.9h0.5v-9.2l-7.7-3.1l-0.5-1.4l-16.7-148.4c1.1-1.5,1.3-2.3,1.3-2.3V106l-4.1-1
	L817,57.9l-0.1-8.1c-0.1-3.1-1.6-5.5-4.7-5.4l-0.1,0c-3.1,0.1-4.5,2.7-4.4,5.8l0.1,4l-26.1,37l-1.2,0.7l-1.3-0.3
	c-16.2,7.7-29.2,15.8-39.6,24l-60.1,35l-82-73.5c8.4-4.8,14.2-7.5,14.2-7.5s-10.4-2.3-23.2-5.1l0-13.5c6.6-0.9,19.6,2.6,19.6,2.6
	c16.7,9,41.6,0,41.6,0c11.1-5.1,37.3,5.6,37.3,5.6c-17.1-23.1-39-18.3-39-18.3c3.4-8.1,36.4-3.5,36.4-3.5c-22.3-13.7-42-9-42-9
	c-23.1,3.4-27.4,0-27.4,0c-12.9-8.1-26.3-5.3-26.3-5.3l-3.8,1.2c-3.1,0-3.6,2-3.6,5.3l-0.3,33.6c-19.1-4.2-40.4-9-41.6-9.4L490,133
	c-5,9.8-8,18.5-9.5,26.5l-113.8-51.3l-1.6-48.9c-0.1-3.1-1.6-5.2-4.7-5.2h-0.1c-3.1,0-4.5,2.5-4.4,5.6l1.4,50.9l0,0c0,0,0-0.1,0-0.1
	c-104.5,67.3-198.1,171.9-254,241.6l-69.5,65.9c-0.1,0.1-0.2,0.3-0.3,0.4L8.2,405.5c-1.3-0.7-2.7-0.6-3.1,0.2
	c-0.4,0.8,0.4,1.9,1.7,2.6l123.9,62.5c-1.1-0.1-2.3,0.5-2.9,1.7c-0.7,1.5-0.3,3.2,1,3.9l82.8,41.7c-7.5,7.8-14.8,14.3-18.8,17.8
	c-3.4-1-8.1-1.6-14.3-1c0,0-8.8-24.4-31.3-16.2c0,0-23.3,11.1-4.4,37.3c0,0,8,10.2,28.4,7.3c0,0,29.1,13.8,48,9.5
	c0,0,20.4,89.5,139.8,123c0,0,126.4-19.9,192.4-25.1c0,0,201.3,7.3,299.7-55.7c0,0,45.1-26.9,53.1-25.5l7.3-17.9l46.4-15.1v-28.9
	c0,0,4.2-2.9,0.5-8.8l1.6-12.4l7.1-13.1v-6.8l4.1-3.9v-6.4c0,0,12.6-13.6-3.5-14.6l-6.8-5.4l-0.4-5.9l-6.4-5.4l1.6-7.6
	c0,0,3.3-9.2-0.5-9.7c0,0,8.1-5.9,0.5-10.2l0.5-12.9L952,401l-0.5-9.2l-21.2-7.2l-0.6-1l9-32.6l29.7,5.8c18.8,5.6,36.1,8.4,36.1,8.4
	c27.2,5.2,18,2.9,18,2.9C1016.3,360.7,1003.9,354.2,1003.9,354.2z M840.5,119.4L856.4,264l-33-12.5l-3.3-102.4
	C828.3,136.4,835.9,125.7,840.5,119.4z M640,451.3c-0.7,0.1-1.3,0.8-1.3,1.5l0,7.1c0.4,8.9-12.1,9.7-12.6,9.7
	c-1.7,0-3.2,0.1-4.8,0.2l-2.1-9.5c3.7-0.4,6-0.4,6.1-0.4c0.2,0,0.4,0,0.6-0.1c8.3-2.8,10-9.8,9.7-14.3c1.6-0.7,3.9-1.4,6.8-2.2
	l1.5,7.2C641.9,450.9,640.5,451.2,640,451.3z M379.3,504l-0.2-6c1.2-0.1,2.6-0.2,4.3-0.3l0.5,6C381.5,503.8,379.9,504,379.3,504z
	 M386.5,497.5c2.7-0.2,5.9-0.4,9.4-0.6l0.9,5.9c-3.8,0.3-7.1,0.5-9.8,0.7L386.5,497.5z M376.1,348.1l39.5,143.6
	c-6.2,0.4-12,0.7-17.1,1L376.1,348.1z M400.2,496.6c5.1-0.3,10.4-0.6,15.9-0.9l1.3,5.6c-6.2,0.4-12.1,0.8-17.2,1.1V496.6z
	 M419.3,495.6c2.7-0.1,5.6-0.3,7.6-0.5v5.6c-2.1,0.1-4.2,0.3-6.4,0.4L419.3,495.6z M456.7,498.8c-9.2,0.6-17.5,1.2-26.7,1.7v-5.6
	c9.2-0.5,18.5-1,26.7-1.5V498.8z M483.4,497.1c-7.2,0.5-15.4,1-23.6,1.5v-5.3c8.2-0.4,16.4-0.9,23.6-1.3V497.1z M532.7,494.3
	c-3.1,0.2-7.2,0.4-12.3,0.7v-1.8c3.1-1.3,4.4-2.6,6.5-3.8c2-0.2,4.8-0.4,5.9-0.6V494.3z M574,332.4c0.2-0.7,0.4-1.4,0.6-2.1
	l4.1,23.1l-0.1,18.1L574,332.4z M578.4,396.2l-0.4,50c-15.2-38.5-13.7-75.1-6.2-105.7L578.4,396.2z M576.6,324
	c0.8-2.3,1.6-4.6,2.4-6.8l-0.2,19.5L576.6,324z M553.2,227.2l26.7-16.1l-0.2,30.1L553.2,227.2z M578.8,203.7l-24.3-10.9
	c-0.9-0.7-1.8-1.3-2.6-2l28.8-86.9L580,204C579.6,203.9,579.2,203.8,578.8,203.7z M577.8,469.5l0,0.2c-4,3-7.6,6.6-10.3,11.1
	c-3.2,0.4-14.2,1.9-30.3,3.5C555.7,474.9,569.3,471,577.8,469.5z M549.1,487.1v6.4c-3.1,0.2-8.2,0.4-13.4,0.6v-5.7
	C540.9,488,546.1,487.5,549.1,487.1z M552.2,486.7c7.2-0.7,11.3-1.3,13.4-1.6v7.9c-3.1,0-7.2,0.1-13.4,0.4V486.7z M568.7,484.6
	c1-0.2,1.2-0.5,1.4-0.8c1.9-3.3,4.6-6.2,7.5-8.7l-0.5,9.6c-4,3-6.4,5.8-8.4,7.4V484.6z M631.4,444.7c0.1,0.3,1.5,8.2-6.5,11.1
	c-0.9,0-3.3,0.1-6.7,0.4l-29.6-133.9l0-27.2c4.1-8.2,8.2-15.3,11.8-21l4.2-3.7l0.8-0.3l36.3,169.2c-4.3,1.1-7.4,2.2-9.2,3.1
	C631.7,442.9,631.3,443.8,631.4,444.7z M588.7,391.3l0-54.7l26.5,119.9c-4.1,0.5-9.1,1.3-14.3,2.7L588.7,391.3z M597.9,460.1
	c-2.8,0.8-5.6,1.9-8.4,3.1l-0.7-6.2l0-48.2L597.9,460.1z M600.5,251.2h-3.7l-8.1-4.8l0-39.1l10-6l4,50.8L600.5,251.2z M589.9,467.5
	c2.9-1.3,5.8-2.3,8.7-3.2l1.6,9.1c-3.4,1-6.4,2.2-9.2,3.4L589.9,467.5z M601.6,463.4c5.3-1.4,10.4-2.3,14.5-2.8l2.1,9.4
	c-5.5,0.5-10.5,1.4-14.9,2.6L601.6,463.4z M645,442.5c1.3-0.3,2.8-0.7,3.8-1v8c0,0.2-1.6,0.3-2.4,0.5L645,442.5z M668.3,445.9
	c-6.2,1.1-11.3,2.2-16.4,3v-8.1c5.1-1,11.3-2.1,16.4-3.2V445.9z M688.8,442.3c-6.2,1.1-11.3,2.1-17.5,3.1v-8.3c6.2-1,12.3-2,17.5-3
	V442.3z M801.7,418.1c6.9-0.9,12.5-1.6,16.1-2.1l0.2,6.5c-3.3,0.2-7.2,0.6-11.8,1.2C804.6,421.9,803.1,420,801.7,418.1z
	 M836.5,104.1l-17.9-4l-1.1-34.8L836.5,104.1z M817.7,411.9c-4,0.5-10.5,1.3-18.6,2.4c-20.8-32.8-4.5-69.1,16-96.4L817.7,411.9z
	 M810.9,164.3l2.3,83.3l-26.2-9.9C782.4,219.8,795.8,190.2,810.9,164.3z M808,59.2l1.1,38.8l-24.6-5.5L808,59.2z M727.8,126
	c-16.1,15.9-23.5,31.5-26.6,43.9L682,152.7L727.8,126z M700.4,173.3c-2.8,13.4-0.7,22.3-0.7,22.3c2.9,45.1,53.1,65.5,53.1,65.5
	c-87.6,43.8-74.4,121.9-56.6,167.9c-20.9,3.3-39.5,6.7-51.6,9.7L607.8,269l3-1.4v-9.5l-5.4-4.2l-4-54.4l77.8-45.2L700.4,173.3z
	 M700.4,440.3c-2.7,0.5-5.5,0.9-8.5,1.4v-8.1c2.1-0.3,3.5-0.5,5.1-0.8C698,435.5,699.4,438,700.4,440.3z M594.8,78.7l82,73.5
	l-75.5,44l-9.1-115.9C593.1,79.7,593.9,79.2,594.8,78.7z M589.2,82l9.1,115.8l-9.7,5.7l0-121.1C588.8,82.3,589,82.1,589.2,82z
	 M580.9,87.4l-0.1,6.4l-31.4,94.7c-6.4-6-8.4-11.2-8.4-11.2C517.4,140.4,552.3,106.9,580.9,87.4z M364.2,361.2l2.6,93.8
	c-2.5-0.8-5.4-1.8-8.5-2.9L364.2,361.2z M362.7,307.4l-6.8-0.3l6.3-16.8L362.7,307.4z M359.4,186l1.4,70.3l-7.8,7.1v10l-16.1,4.3
	c-12.6-9.4-24.9-26.1-8.4-50.2C328.4,227.6,343.4,208.2,359.4,186z M337.8,133.9l11.2-10.6c-10.9,17.7-29.8,51.3-40.6,86.2
	C310.8,178.6,325.3,151.8,337.8,133.9z M300.2,252.2c-0.9,21.5,4.2,41,19.8,54.8c-5.9,11.7-14.9,25-28.2,34.1
	c0,0-30.5,16.7-45.7,47.4C248.6,348.3,283.3,282.3,300.2,252.2z M231.7,503c2.8-3.6,5.3-6.8,7.4-9.5l15.1-0.2
	c-2.2,3.5-4.8,7.1-7.7,10.5L231.7,503z M239.7,511.4c-3,3.1-6.1,6.1-9.2,9c-3.1-1.7-6.2-3.4-9-4.9c1.6-1.9,3.2-3.8,4.7-5.6
	L239.7,511.4z M210,507.3L36.2,419.7L89.8,369c-26,33.3-40.9,55.2-40.9,55.2c55.4-24.4,158.3-18.1,190.4-15.5
	c-3.5,17.8-1.1,38.9,12.8,62.9l-42.2,1.2c0,0-2.2,0-3.2,5.4c0,0-2.7,12.9,4.9,15.6l20.2-0.2c-3.8,6.3-9.3,13-15,19.2
	c-3-1.7-5-2.8-4.9-3C212.1,509.1,211.3,508,210,507.3z M216.9,520.7l8.4,4.2c-2.3,2-4.6,3.9-6.8,5.7l-6.9-4
	C213.3,524.7,215.1,522.7,216.9,520.7z M201.1,540.6c0,0-0.6-0.9-2.1-1.9c1.8-1.4,3.6-3,5.6-4.9l5.5,3.5c-3,2.3-5.5,4-7.2,5.2
	L201.1,540.6z M212.1,552.9l-4.9-5.5c3.2-2,6.2-4.1,9.1-6.2l8.4,5.3C220.3,549.5,216,551.7,212.1,552.9z M233.8,539.7l-8.8-5.1
	c2.5-2,4.9-4.1,7.1-6.1l9.1,4.6C238.8,535.3,236.3,537.6,233.8,539.7z M245.8,528.6c0,0-3.8-2-8.8-4.7c4.1-4.1,7.7-8,10.7-11.6
	l12,1.3C255.5,518.5,250.8,523.6,245.8,528.6z M267,505.1l-13.1-0.8c3-4.3,5.2-8.1,6.7-11l15.8-0.2C276.3,493.1,272.7,498,267,505.1
	z M292.8,374c0,0,6.1-18.9,25.1-28.1c0,0,28.4-12.9,30.2-16.1l12.8,13.4l-15.3,103.7C318.4,434.7,284.9,411.6,292.8,374z
	 M353.5,478.3c-0.6-0.1-1.2-0.1-1.8-0.1l-2.1-4.6c1.5-0.5,2.9-1,4.4-1.6L353.5,478.3z M348.6,448.2l12.2-82.8l-5.6,85.5
	C353.1,450.1,350.9,449.2,348.6,448.2z M360.3,484.1c0,0-0.6-3.1-3.8-4.8l0.6-8.5c3.6-1.4,7-2.9,10-4.5l0.7,25.9L360.3,484.1z
	 M371.6,277.1l7.1-3.4v-0.3l5.1-0.8v-7.1l-5.1,1.3v-10.4l-7.9-4.6l-2.3-79.1c13.1-18.7,25.6-37.2,29.6-46.4l-31.2-12.3l-0.1-2.6
	l113.2,51c-5.2,38.4,27.6,55.5,49.8,62.6C428.5,345,462.5,446,484.9,487.9c-20.5,1.1-45.3,2.4-66.2,3.6l-41.1-149.8l12.7-11.9
	l6.9-2.2v-11.8l-5-7.1l-19.6-0.9L371.6,277.1z M489,496.8c-0.8,0-1.4,0.1-2.5,0.1v-4.3C487.5,494.1,488.2,495.5,489,496.8z
	 M395.3,492.9c-3.4,0.2-6.4,0.4-9.1,0.6l-10.1-125.5L395.3,492.9z M383.1,493.7c-1.5,0.1-2.9,0.2-4.1,0.3l-2.7-84.9L383.1,493.7z
	 M381.4,506.9c0.7-0.1,1.7-0.1,2.8-0.2l0.3,3.5L381.4,506.9z M397.2,511.9l-9.9,0.7l-0.2-6.1c2.7-0.2,5.8-0.4,9.7-0.7l0.5,5.6V511.9
	z M400.8,511.7l-0.6-0.5v-5.6c6.2-0.4,11.8-0.8,18.3-1.2l1.7,6L400.8,511.7z M423.3,510.2l-1.9-6c1.9-0.1,4.5-0.3,5.5-0.4v6.1
	L423.3,510.2z M430,509.8v-6.1c9.2-0.6,17.5-1.1,26.7-1.7v6.1L430,509.8z M459.8,507.8v-6.1c8.2-0.5,16.4-1,23.6-1.5v6L459.8,507.8z
	 M486.5,506.1v-6c2.1-0.1,3.4-0.2,4.9-0.3c1.5,2.4,2.6,4.3,3.6,5.7L486.5,506.1z M512.4,513.8l-2.6-9.2l-6.9,0.5
	c3.3-2.3,6.1-4.5,9.2-6.5c1.9-0.1,4.1-0.2,5.2-0.3v15L512.4,513.8z M520.4,512.9v-14.9c5.1-0.2,9.2-0.5,12.3-0.7v14.3L520.4,512.9z
	 M535.8,511.4v-14.2c5.1-0.2,10.3-0.5,13.4-0.6v13.5L535.8,511.4z M552.2,509.8v-13.3c6.2-0.2,10.3-0.4,13.4-0.4v12.3L552.2,509.8z
	 M568.7,508.2v-12c1,0,1.5-0.2,1.8-0.6c0.1-0.1,2.5-3,7-6.7l-0.5,18.6L568.7,508.2z M588.7,506.3l0-22.8l2.7,22.6L588.7,506.3z
	 M596,505.6l-1.6,0.2l-3-25.5c2.8-1.3,5.9-2.6,9.4-3.6l3.3,18.7C600.2,498.5,597,502,596,505.6z M606.9,493.2l-3.1-17.5
	c4.5-1.2,9.5-2.1,15.1-2.6l2.6,11.6C617.3,486.7,611.8,489.6,606.9,493.2z M627.3,481.9c0,0-1.2,0.5-3,1.3l-2.3-10.5
	c1.4-0.1,2.8-0.1,4.2-0.2c3.3-0.2,8.2-1.3,11.6-4.1C636,472.8,632.8,477.9,627.3,481.9z M641.8,459.6l0-5.5c0.7-0.1,1.7-0.3,2.9-0.5
	l1.2,5.6L641.8,459.6z M648.5,458.8L647,453c0.6-0.1,1.8-0.2,1.8-0.4v6.1L648.5,458.8z M651.8,458.4v-6.3c5.1-0.8,10.3-1.8,16.4-3
	v7.4L651.8,458.4z M671.4,456.1v-7.6c6.2-1,11.3-2,17.5-3.1v8.7L671.4,456.1z M691.9,453.8v-8.9c3.1-0.5,6.7-1.1,9.9-1.6
	c1.5,3.3,2.7,6.3,4.1,8.9L691.9,453.8z M808.8,426.5c3.4-0.4,6.4-0.7,8.9-0.9l-5.6,4.1C810.9,428.7,809.9,427.6,808.8,426.5z
	 M838.2,412.3l-9.4,6.1l-2.8-88.7l14.9,61.7c-1.3,0.3-2.5,0.6-3.7,0.9L838.2,412.3z M843.8,390.8l-18.4-76.2l0-0.8l27,75.5
	C849.4,389.8,846.5,390.3,843.8,390.8z M855.5,388.8L825.6,305c0.6-0.7,1.2-1.3,1.8-2l40.9,84.2C864,387.7,859.7,388.2,855.5,388.8z
	 M871.5,386.8l-41.9-86.3c0-0.1,0.1-0.1,0.1-0.2l54.2,85.3C880.2,386,875.9,386.4,871.5,386.8z M923.4,382.8l-2.7,14.2h-3.9
	l-0.9,4.6l-16.6,0.8l-1.3-17.6c0,0-4.3,0.2-10.7,0.7l-55.5-87.3c13.2-14,24.3-22.2,24.3-22.2l7.2,1.9h0l62.4,106L923.4,382.8z"/>
</svg>
